<?xml version="1.0" encoding="utf-8"?>
<!-- Generator: Adobe Illustrator 23.0.3, SVG Export Plug-In . SVG Version: 6.00 Build 0)  -->
<svg version="1.1" id="Layer_1" xmlns="http://www.w3.org/2000/svg" xmlns:xlink="http://www.w3.org/1999/xlink" x="0px" y="0px"
	 viewBox="0 0 264 72" style="enable-background:new 0 0 264 72;" xml:space="preserve">
<style type="text/css">
	.st0{fill:#D5D3CC;}
	.st1{fill:#FFFFFF;}
</style>
<title>en_IIC_103x75_Logo-White</title>
<g>
	<g id="Layer_1-2">
		<polygon class="st0" points="-249.6,0 -260.6,8.2 -249.5,17.2 -238.5,8.2 		"/>
		<polygon class="st0" points="-260.6,19.5 -260.6,20.4 -257.4,20.4 -256.6,55.5 -260.6,55.5 -260.6,56.1 -255.9,56.1 -254.7,19.5 
					"/>
		<polygon class="st0" points="-254.1,19.5 -251.5,19.5 -252.6,56.1 -253.4,56.1 		"/>
		<polygon class="st0" points="-250.8,19.5 -248.3,19.5 -249.4,56.1 -250.2,56.1 		"/>
		<polygon class="st0" points="-247.6,19.5 -245,19.5 -246.2,56.1 -246.8,56.1 		"/>
		<polygon class="st0" points="-244.4,19.5 -238.5,19.5 -238.5,20.4 -241.9,20.4 -242.7,55.5 -238.5,55.5 -238.5,56.1 -243.7,56.1 
					"/>
		<path class="st0" d="M-258.2,67.4v8.4h-1.9v-8.4H-258.2z"/>
		<path class="st0" d="M-256.6,71.6v-1.9h1.6l0.1,0.8l0,0c0.4-0.6,1.1-1,1.9-1c1.2,0,2.2,0.8,2.2,2.6v3.6h-1.9v-3.4
			c0-0.8-0.3-1.3-1-1.3c-0.5,0-0.9,0.3-1,0.7c-0.1,0.2-0.1,0.3-0.1,0.5v3.5h-1.8V71.6z"/>
		<path class="st0" d="M-249.4,74.1c0.5,0.3,1.1,0.4,1.6,0.4c0.6,0,0.8-0.2,0.8-0.5s-0.2-0.5-0.9-0.7c-1.3-0.4-1.8-1.1-1.7-1.8
			c0-1.1,1-2,2.5-2c0.6,0,1.2,0.1,1.7,0.4l-0.3,1.3c-0.4-0.2-0.9-0.3-1.3-0.3c-0.5,0-0.7,0.2-0.7,0.5s0.2,0.4,1,0.7
			c1.2,0.4,1.6,1,1.6,1.9c0,1.1-0.9,2-2.6,2c-0.7,0-1.4-0.1-2-0.4L-249.4,74.1z"/>
		<path class="st0" d="M-238.2,73.8v2h-1.6l-0.1-0.8l0,0c-0.4,0.6-1.1,1-1.9,1c-1.2,0-2.1-0.8-2.1-2.7v-3.7h1.9V73
			c0,0.9,0.3,1.4,1,1.4c0.4,0,0.8-0.3,0.9-0.7c0.1-0.1,0.1-0.3,0.1-0.4v-3.7h1.9L-238.2,73.8z"/>
		<path class="st0" d="M-236.6,71.7v-2h1.6l0.1,1.1h0.1c0.2-0.7,0.9-1.3,1.6-1.3c0.1,0,0.3,0,0.4,0v1.8c-0.2,0-0.4,0-0.5,0
			c-0.6-0.1-1.2,0.4-1.3,1c0,0.1,0,0.3,0,0.4v3.1h-2V71.7z"/>
		<path class="st0" d="M-227,74.3c0,0.5,0,1,0.1,1.5h-1.7l-0.1-0.6l0,0c-0.4,0.5-1.1,0.8-1.8,0.8c-1,0.1-1.9-0.7-2-1.7c0,0,0,0,0,0
			c0-0.1,0-0.1,0-0.2c0-1.6,1.4-2.3,3.6-2.3v-0.1c0-0.3-0.2-0.8-1.1-0.8c-0.6,0-1.2,0.2-1.7,0.4l-0.4-1.2c0.8-0.4,1.6-0.6,2.4-0.5
			c1.3-0.2,2.5,0.7,2.7,2c0,0.2,0,0.4,0,0.6L-227,74.3z M-228.9,72.9c-1,0-1.8,0.2-1.8,1c0,0.4,0.3,0.7,0.6,0.7c0,0,0,0,0,0h0.1
			c0.5,0,0.9-0.3,1-0.7c0-0.1,0-0.2,0-0.3L-228.9,72.9z"/>
		<path class="st0" d="M-225.5,71.6c0-0.8,0-1.4-0.1-1.9h1.6l0.1,0.8l0,0c0.4-0.6,1.1-1,1.9-1c1.2,0,2.2,0.8,2.2,2.6v3.6h-1.9v-3.4
			c0-0.8-0.3-1.3-1-1.3c-0.5,0-0.9,0.3-1,0.7c-0.1,0.2-0.1,0.3-0.1,0.5v3.5h-1.8V71.6z"/>
		<path class="st0" d="M-213.6,75.6c-0.5,0.2-1.1,0.3-1.7,0.3c-1.7,0.1-3.1-1.1-3.2-2.8c0-0.1,0-0.2,0-0.4c0-1.8,1.3-3.2,3.1-3.2
			c0,0,0,0,0,0c0.1,0,0.3,0,0.4,0c0.5,0,1,0.1,1.4,0.2l-0.3,1.4c-0.3-0.1-0.7-0.2-1.1-0.2c-0.9,0-1.6,0.6-1.7,1.5c0,0,0,0,0,0
			c0,0.1,0,0.1,0,0.2c-0.1,0.9,0.6,1.6,1.4,1.7h0.2c0.4,0,0.7-0.1,1.1-0.2L-213.6,75.6z"/>
		<path class="st0" d="M-211.3,73.3c0.1,0.8,0.8,1.2,1.7,1.2c0.6,0,1.1-0.1,1.7-0.3l0.2,1.3c-0.7,0.3-1.5,0.4-2.2,0.4
			c-1.6,0.2-3-1-3.2-2.6c0-0.2,0-0.4,0-0.5c-0.1-1.7,1.2-3.1,2.9-3.2h0.2c2,0,2.7,1.5,2.7,3c0,0.3,0,0.5-0.1,0.8L-211.3,73.3z
			 M-209.1,72c0.1-0.6-0.4-1.1-1-1.2c0,0,0,0,0,0h-0.1c-0.6,0.1-1.1,0.6-1.1,1.2H-209.1z"/>
		<path class="st0" d="M-201.6,67.4v8.4h-1.9v-8.4H-201.6z"/>
		<path class="st0" d="M-200.1,71.6v-1.9h1.7l0.1,0.8l0,0c0.4-0.6,1.1-1,1.9-1c1.2,0,2.2,0.8,2.2,2.6v3.6h-1.9v-3.4
			c0-0.8-0.3-1.3-1-1.3c-0.5,0-0.9,0.3-1,0.7c-0.1,0.2-0.1,0.3-0.1,0.5v3.5h-1.8V71.6z"/>
		<path class="st0" d="M-192.8,74.1c0.5,0.3,1.1,0.4,1.6,0.4c0.6,0,0.8-0.2,0.8-0.5s-0.2-0.5-0.9-0.7c-1.3-0.4-1.8-1.1-1.7-1.8
			c0-1.1,1-2,2.5-2c0.6,0,1.2,0.1,1.7,0.4l-0.3,1.3c-0.4-0.2-0.9-0.3-1.3-0.3c-0.5,0-0.7,0.2-0.7,0.5s0.2,0.4,1,0.7
			c1.2,0.4,1.6,1,1.6,1.9c0,1.1-0.9,2-2.6,2c-0.7,0-1.4-0.1-2-0.4L-192.8,74.1z"/>
		<path class="st0" d="M-185.3,68v1.7h1.4v1.4h-1.4v2.2c0,0.7,0.2,1.1,0.8,1.1c0.2,0,0.4,0,0.6-0.1v1.4c-0.4,0.1-0.8,0.2-1.2,0.2
			c-0.5,0-1.1-0.2-1.4-0.5c-0.4-0.5-0.6-1.2-0.5-1.8v-2.5h-0.8v-1.4h0.8v-1.1L-185.3,68z"/>
		<path class="st0" d="M-181.9,68.9c-0.6,0-1-0.5-0.9-1.1c0-0.6,0.5-1,1.1-0.9c0.6,0,1,0.5,1,1C-180.8,68.5-181.3,68.9-181.9,68.9
			L-181.9,68.9z M-182.8,75.8v-6.1h1.9v6.1H-182.8z"/>
		<path class="st0" d="M-177.3,68v1.7h1.4v1.4h-1.4v2.2c0,0.7,0.2,1.1,0.7,1.1c0.2,0,0.4,0,0.6-0.1v1.4c-0.4,0.1-0.8,0.2-1.2,0.2
			c-0.5,0-1-0.2-1.4-0.5c-0.4-0.5-0.6-1.2-0.5-1.8v-2.5h-0.8v-1.4h0.8v-1.1L-177.3,68z"/>
		<path class="st0" d="M-169.1,73.8v2h-1.6l-0.1-0.8l0,0c-0.4,0.6-1.1,1-1.8,1c-1.2,0-2.2-0.8-2.2-2.7v-3.7h1.9V73
			c0,0.9,0.3,1.4,1,1.4c0.4,0,0.8-0.3,0.9-0.7c0.1-0.1,0.1-0.3,0.1-0.4v-3.7h1.9L-169.1,73.8z"/>
		<path class="st0" d="M-165.5,68v1.7h1.4v1.4h-1.4v2.2c0,0.7,0.2,1.1,0.8,1.1c0.2,0,0.4,0,0.6-0.1v1.4c-0.4,0.1-0.8,0.2-1.2,0.2
			c-0.5,0-1-0.2-1.4-0.5c-0.4-0.5-0.6-1.2-0.5-1.8v-2.5h-0.8v-1.4h0.8v-1.1L-165.5,68z"/>
		<path class="st0" d="M-161.6,73.3c0.1,0.8,0.8,1.2,1.7,1.2c0.6,0,1.1-0.1,1.7-0.3l0.2,1.3c-0.7,0.3-1.4,0.4-2.2,0.4
			c-1.6,0.2-3.1-1-3.2-2.6c0-0.2,0-0.4,0-0.6c-0.1-1.7,1.2-3.1,2.9-3.2h0.2c2,0,2.7,1.5,2.7,3c0,0.3,0,0.5-0.1,0.8L-161.6,73.3z
			 M-159.4,72c0.1-0.6-0.4-1.1-1-1.2c0,0,0,0,0,0h-0.1c-0.6,0.1-1.1,0.6-1.1,1.2L-159.4,72z"/>
	</g>
</g>
<g>
	<polygon class="st0" points="-113.5,67.5 -112,67.5 -112,74.4 -108.6,74.4 -108.6,75.7 -113.5,75.7 	"/>
	<path class="st0" d="M-107.1,73.2c0,1.1,0.9,1.5,1.8,1.5c0.6,0,1.1-0.1,1.6-0.3l0.2,1c-0.7,0.3-1.4,0.4-2.1,0.4
		c-1.9,0-3.1-1.2-3.1-3c0-1.6,1-3.2,2.9-3.2c1.9,0,2.6,1.6,2.6,2.9c0,0.2,0,0.4-0.1,0.6H-107.1z M-104.5,72.1c0-0.5-0.2-1.4-1.2-1.4
		c-0.9,0-1.3,0.8-1.4,1.4H-104.5z"/>
	<path class="st0" d="M-97.9,74.3c0,0.5,0,1,0.1,1.4h-1.4l-0.1-0.7h0c-0.4,0.5-1.1,0.8-1.8,0.8c-1,0.1-1.8-0.7-1.9-1.7
		c0,0,0-0.1,0-0.1c0-1.5,1.3-2.3,3.5-2.2v-0.1c0-0.4-0.2-1-1.2-1c-0.6,0-1.1,0.1-1.6,0.4l-0.3-1c0.7-0.4,1.4-0.5,2.1-0.5
		c1.9,0,2.5,1.2,2.5,2.5L-97.9,74.3z M-99.4,72.8c-1.1,0-2.1,0.2-2.1,1.1c0,0.4,0.3,0.8,0.7,0.9c0,0,0.1,0,0.1,0
		c0.5,0,1-0.3,1.2-0.8c0-0.1,0-0.2,0-0.3L-99.4,72.8z"/>
	<path class="st0" d="M-91.5,67.1v7c0,0.6,0,1.3,0,1.7h-1.3l-0.1-0.9h0c-0.4,0.7-1.1,1.1-1.9,1.1c-1.4,0-2.5-1.2-2.5-3
		c0-2,1.2-3.2,2.7-3.2c0.7-0.1,1.3,0.2,1.7,0.8l0,0v-3.4H-91.5z M-93,72.2c0-0.1,0-0.3,0-0.4c-0.1-0.6-0.7-1.1-1.3-1
		c-1,0-1.5,0.9-1.5,2s0.5,1.9,1.5,1.9c0.6,0,1.2-0.4,1.3-1c0-0.1,0-0.3,0-0.4V72.2z"/>
	<path class="st0" d="M-89.4,73.2c0,1.1,0.9,1.5,1.8,1.5c0.6,0,1.1-0.1,1.6-0.3l0.2,1c-0.7,0.3-1.4,0.4-2.1,0.4
		c-1.9,0-3.1-1.2-3.1-3c0-1.6,1-3.2,2.9-3.2c1.9,0,2.6,1.6,2.6,2.9c0,0.2,0,0.4,0,0.6H-89.4z M-86.8,72.1c0-0.5-0.2-1.4-1.2-1.4
		c-0.9,0-1.3,0.8-1.4,1.4H-86.8z"/>
	<path class="st0" d="M-84.8,71.7c0-0.8,0-1.4,0-1.9h1.3l0.1,1.1h0c0.2-0.7,0.9-1.2,1.6-1.2c0.1,0,0.2,0,0.3,0v1.4
		c-0.1,0-0.3,0-0.4,0c-0.7,0-1.2,0.5-1.3,1.1c0,0.1,0,0.3,0,0.4v3.1h-1.5V71.7z"/>
	<path class="st0" d="M-81.2,74.3c0.5,0.3,1,0.4,1.5,0.4c0.7,0,1-0.3,1-0.7s-0.2-0.6-1-0.9c-1.2-0.4-1.6-1-1.6-1.7
		c0-1,0.9-1.9,2.2-1.9c0.5,0,1.1,0.1,1.6,0.4l-0.3,1c-0.4-0.2-0.8-0.3-1.2-0.3c-0.5,0-0.8,0.3-0.8,0.6c0,0.4,0.3,0.5,1,0.8
		c1.1,0.4,1.6,0.9,1.6,1.8c0,1.1-0.8,1.9-2.4,1.9c-0.6,0-1.2-0.1-1.8-0.4L-81.2,74.3z"/>
	<path class="st0" d="M-76.7,67.1h1.5v3.5h0c0.2-0.3,0.4-0.5,0.7-0.7c0.3-0.2,0.7-0.3,1-0.3c1,0,2.1,0.7,2.1,2.6v3.5h-1.5v-3.4
		c0-0.9-0.3-1.5-1.1-1.5c-0.5,0-1,0.3-1.2,0.8c0,0.1-0.1,0.3-0.1,0.5v3.6h-1.5V67.1z"/>
	<path class="st0" d="M-68.8,68.1c0,0.5-0.4,0.8-0.8,0.8c0,0,0,0,0,0c-0.5,0-0.8-0.4-0.8-0.9c0-0.5,0.4-0.8,0.9-0.8
		C-69.1,67.3-68.8,67.7-68.8,68.1 M-70.4,69.8h1.5v5.9h-1.5V69.8z"/>
	<path class="st0" d="M-67.9,71.7c0-0.8,0-1.4,0-2h1.3l0.1,0.9l0,0c0.4-0.7,1.2-1.1,2.1-1.1c1.4,0,2.5,1.2,2.5,3
		c0,2.1-1.4,3.2-2.7,3.2c-0.6,0-1.3-0.3-1.6-0.8h0v3.1h-1.5L-67.9,71.7z M-66.4,73.2c0,0.1,0,0.3,0,0.4c0.1,0.6,0.7,1,1.3,1
		c1,0,1.5-0.8,1.5-2c0-1-0.5-1.9-1.5-1.9c-0.7,0-1.2,0.5-1.3,1.1c0,0.1,0,0.2,0,0.4V73.2z"/>
	<path class="st1" d="M-59.5,67.6c0.8-0.1,1.6-0.2,2.4-0.2c1.5,0,2.6,0.3,3.3,1c0.9,0.7,1.4,1.9,1.3,3c0.1,1.2-0.4,2.4-1.3,3.3
		c-0.8,0.7-2.1,1.1-3.7,1.1c-0.7,0-1.4,0-2-0.1L-59.5,67.6z M-58,74.6c0.3,0,0.5,0,0.8,0c2,0,3.1-1.1,3.1-3.2c0-1.8-1-2.8-2.9-2.8
		c-0.3,0-0.7,0-1,0.1L-58,74.6z"/>
	<path class="st1" d="M-50.8,73.2c0,1.1,0.9,1.5,1.8,1.5c0.6,0,1.1-0.1,1.6-0.3l0.2,1c-0.7,0.3-1.4,0.4-2.1,0.4
		c-1.9,0-3.1-1.2-3.1-3c0-1.6,1-3.2,2.9-3.2c1.9,0,2.6,1.6,2.6,2.9c0,0.2,0,0.4,0,0.6H-50.8z M-48.2,72.1c0-0.5-0.2-1.4-1.2-1.4
		c-0.9,0-1.3,0.8-1.4,1.4H-48.2z"/>
	<path class="st1" d="M-46,75.7v-4.8h-0.8v-1.1h0.8v-0.3c0-1.6,1.1-2.6,2.9-2.6c0.6,0,1.1,0.1,1.6,0.4l-0.4,1.1
		c-0.4-0.2-0.8-0.3-1.3-0.3c-1,0-1.4,0.6-1.4,1.4v0.2h3.5v5.9h-1.5v-4.8h-2v4.8H-46z"/>
	<path class="st1" d="M-40,71.5c0-0.7,0-1.2,0-1.8h1.3l0.1,0.9h0c0.4-0.7,1.1-1,1.9-1c1,0,2.1,0.7,2.1,2.5v3.5h-1.5v-3.3
		c0-0.9-0.3-1.5-1.1-1.5c-0.5,0-1,0.4-1.2,0.9c-0.1,0.2-0.1,0.3-0.1,0.5v3.5H-40V71.5z"/>
	<path class="st1" d="M-32.6,73.2c0,1.1,0.9,1.5,1.8,1.5c0.6,0,1.1-0.1,1.6-0.3l0.2,1c-0.7,0.3-1.4,0.4-2.1,0.4
		c-1.9,0-3.1-1.2-3.1-3c0-1.6,1-3.2,2.9-3.2c1.9,0,2.6,1.6,2.6,2.9c0,0.2,0,0.4,0,0.6L-32.6,73.2z M-30,72.1c0-0.5-0.2-1.4-1.2-1.4
		c-0.9,0-1.3,0.8-1.4,1.4H-30z"/>
	<path class="st1" d="M-22.6,67.1v7c0,0.6,0,1.3,0,1.7h-1.3l-0.1-0.9h0c-0.4,0.7-1.1,1.1-1.9,1.1c-1.4,0-2.5-1.2-2.5-3
		c0-2,1.2-3.2,2.7-3.2c0.6,0,1.3,0.2,1.6,0.8h0v-3.4H-22.6z M-24.1,72.2c0-0.1,0-0.3,0-0.4c-0.1-0.6-0.7-1-1.3-1c-1,0-1.5,0.9-1.5,2
		s0.5,1.9,1.5,1.9c0.6,0,1.2-0.4,1.3-1c0-0.1,0.1-0.3,0-0.4V72.2z"/>
	<path class="st1" d="M-21.8,74.9c0-0.5,0.4-0.9,0.9-1c0,0,0,0,0.1,0c0.5,0,1,0.4,1,0.9c0,0.5-0.4,1-0.9,1
		C-21.3,75.9-21.8,75.4-21.8,74.9C-21.8,74.9-21.8,74.9-21.8,74.9"/>
</g>
<g>
	<polygon class="st1" points="-113.5,42.8 -100.6,42.8 -100.6,45.8 -109.9,45.8 -109.9,51.2 -102.9,51.2 -102.9,54.2 -109.9,54.2 
		-109.9,62.5 -113.5,62.5 	"/>
	<path class="st1" d="M-86,61.9c-0.8,0.4-2.7,0.9-5.1,0.9c-6.3,0-10.1-3.9-10.1-9.9c0-6.5,4.5-10.4,10.5-10.4c2.4,0,4.1,0.5,4.8,0.9
		l-0.8,2.9c-1.2-0.5-2.5-0.8-3.9-0.8c-4,0-6.9,2.5-6.9,7.2c0,4.3,2.5,7.1,6.9,7.1c1.3,0,2.7-0.2,3.9-0.7L-86,61.9z"/>
	<rect x="-84.4" y="42.8" class="st0" width="3.6" height="19.7"/>
	<path class="st1" d="M-78.2,43.1c1.8-0.3,3.7-0.4,5.5-0.4c2.6,0,4.6,0.6,5.8,1.6c1.3,1.1,2,2.7,1.9,4.4c0,1.9-0.6,3.4-1.7,4.5
		c-1.4,1.4-3.7,2.1-6.2,2.1c-0.6,0-1.2,0-1.8-0.1v7.4h-3.6V43.1z M-74.7,52.3c0.6,0.1,1.2,0.2,1.8,0.1c2.7,0,4.3-1.3,4.3-3.6
		c0-2.2-1.5-3.4-4-3.4c-0.7,0-1.4,0-2.1,0.2L-74.7,52.3z"/>
	<path class="st0" d="M-80.3,38.1c0,1.3-1.1,2.4-2.4,2.4c-1.3,0-2.4-1.1-2.4-2.4c0-1.3,1.1-2.4,2.4-2.4
		C-81.3,35.7-80.3,36.8-80.3,38.1C-80.3,38.1-80.3,38.1-80.3,38.1"/>
</g>
<polygon class="st0" points="10.1,0 0,7.5 10.2,15.7 20.3,7.5 "/>
<polygon class="st0" points="0,17.8 0,18.7 2.9,18.7 3.7,50.8 0,50.8 0,51.4 4.3,51.4 5.4,17.8 "/>
<polygon class="st0" points="6,17.8 8.4,17.8 7.3,51.4 6.6,51.4 "/>
<polygon class="st0" points="9,17.8 11.3,17.8 10.3,51.4 9.6,51.4 "/>
<polygon class="st0" points="12,17.8 14.3,17.8 13.2,51.4 12.7,51.4 "/>
<polygon class="st0" points="14.9,17.8 20.3,17.8 20.3,18.7 17.2,18.7 16.4,50.8 20.3,50.8 20.3,51.4 15.5,51.4 "/>
<path class="st0" d="M2.2,61.2v8.4H0.4v-8.4H2.2z"/>
<path class="st0" d="M3.8,65.4c0-0.8,0-1.4,0-1.9h1.6l0.1,0.9l0,0c0.4-0.6,1.1-1,1.9-1c1.2,0,2.2,0.8,2.2,2.6v3.6H7.7v-3.4
	c0-0.8-0.3-1.3-1-1.3c-0.5,0-0.9,0.3-1,0.7c0,0.2-0.1,0.3-0.1,0.5v3.5H3.8V65.4z"/>
<path class="st0" d="M11.1,68c0.5,0.3,1.1,0.4,1.6,0.4c0.6,0,0.8-0.2,0.8-0.5s-0.2-0.5-0.9-0.7c-1.3-0.4-1.8-1.1-1.7-1.8
	c0-1.2,1-2,2.5-2c0.6,0,1.2,0.1,1.7,0.4L14.8,65c-0.4-0.2-0.9-0.3-1.3-0.3c-0.5,0-0.7,0.2-0.7,0.5s0.2,0.4,1,0.7
	c1.2,0.4,1.6,1,1.6,1.9c0,1.1-0.9,2-2.6,2c-0.7,0-1.4-0.1-2-0.4L11.1,68z"/>
<path class="st0" d="M18.6,61.8v1.7H20v1.4h-1.4v2.2c0,0.7,0.2,1.1,0.8,1.1c0.2,0,0.4,0,0.6,0v1.4c-0.4,0.1-0.8,0.2-1.2,0.2
	c-0.5,0-1-0.2-1.4-0.5c-0.4-0.5-0.6-1.2-0.5-1.8v-2.5H16v-1.4h0.8v-1.1L18.6,61.8z"/>
<path class="st0" d="M22,62.7c-0.6,0-1-0.4-1-1c0-0.6,0.4-1.1,1-1.1c0.6,0,1.1,0.4,1.1,1s-0.4,1.1-1,1.1
	C22.1,62.7,22.1,62.7,22,62.7L22,62.7z M21.1,69.6v-6.1H23v6.1H21.1z"/>
<path class="st0" d="M26.6,61.8v1.7H28v1.4h-1.4v2.2c0,0.7,0.2,1.1,0.8,1.1c0.2,0,0.4,0,0.6,0v1.4c-0.4,0.1-0.8,0.2-1.2,0.2
	c-0.5,0-1-0.2-1.4-0.5c-0.4-0.5-0.6-1.2-0.5-1.8v-2.5h-0.8v-1.4h0.8v-1.1L26.6,61.8z"/>
<path class="st0" d="M34.8,67.6c0,0.8,0,1.4,0,1.9h-1.6l-0.1-0.9l0,0c-0.4,0.6-1.1,1-1.9,1C29.9,69.7,29,69,29,67v-3.6h1.9v3.3
	c0,0.9,0.3,1.4,1,1.4c0.6,0,1-0.4,1-1c0,0,0,0,0-0.1v-3.6h1.9L34.8,67.6z"/>
<path class="st0" d="M38.4,61.8v1.7h1.4v1.4h-1.4v2.2c0,0.7,0.2,1.1,0.8,1.1c0.2,0,0.4,0,0.6,0v1.4c-0.4,0.1-0.8,0.2-1.2,0.2
	c-0.5,0-1-0.2-1.4-0.5c-0.4-0.5-0.6-1.2-0.5-1.8v-2.5h-0.8v-1.4h0.8v-1.1L38.4,61.8z"/>
<path class="st0" d="M49.3,60.7v7c0,0.7,0,1.4,0,1.8h-1.7l-0.1-0.9l0,0c-0.4,0.7-1.1,1-1.9,1c-1.4,0-2.6-1.2-2.6-3.1
	c0-2,1.3-3.2,2.7-3.2c0.6,0,1.2,0.2,1.6,0.7l0,0v-3.3L49.3,60.7z M47.4,66.1c0-0.1,0-0.2,0-0.3c-0.1-0.5-0.6-0.9-1.1-0.9
	c-0.9,0-1.3,0.8-1.3,1.7s0.5,1.7,1.3,1.7c0.5,0,1-0.4,1.1-0.9c0-0.1,0-0.3,0-0.4L47.4,66.1z"/>
<path class="st0" d="M53,61c-0.4,1.2-0.9,2.3-1.5,3.4l-1.1,0.1c0.4-1.1,0.7-2.2,0.9-3.4L53,61z"/>
<path class="st0" d="M59.1,68.1c0,0.5,0,1,0.1,1.5h-1.7L57.4,69l0,0c-0.4,0.5-1.1,0.8-1.7,0.8c-1,0.1-1.9-0.7-2-1.7
	c0-0.1,0-0.1,0-0.2c0-1.6,1.4-2.3,3.6-2.3v-0.1c0-0.3-0.2-0.8-1.1-0.8c-0.6,0-1.2,0.2-1.7,0.4l-0.3-1.2c0.7-0.4,1.5-0.6,2.4-0.5
	c1.3-0.2,2.5,0.7,2.7,2c0,0.2,0,0.4,0,0.6V68.1z M57.3,66.7c-1,0-1.8,0.2-1.8,1c0,0.4,0.3,0.7,0.6,0.7c0,0,0.1,0,0.1,0
	c0.5,0,0.9-0.3,1-0.7c0-0.1,0-0.2,0-0.3L57.3,66.7z"/>
<path class="st0" d="M60.6,68c0.5,0.3,1.1,0.4,1.6,0.4c0.6,0,0.8-0.2,0.8-0.5s-0.2-0.5-0.9-0.7c-1.3-0.4-1.8-1.1-1.7-1.8
	c0-1.2,1-2,2.5-2c0.6,0,1.2,0.1,1.7,0.4L64.3,65c-0.4-0.2-0.8-0.3-1.3-0.3c-0.5,0-0.7,0.2-0.7,0.5s0.2,0.4,1,0.7
	c1.2,0.4,1.6,1,1.6,1.9c0,1.1-0.9,2-2.6,2c-0.7,0-1.4-0.1-2-0.4L60.6,68z"/>
<path class="st0" d="M66,68c0.5,0.3,1.1,0.4,1.6,0.4c0.6,0,0.8-0.2,0.8-0.5s-0.2-0.5-0.9-0.7c-1.3-0.4-1.8-1.1-1.7-1.8
	c0-1.2,1-2,2.5-2c0.6,0,1.2,0.1,1.7,0.4L69.7,65c-0.4-0.2-0.9-0.3-1.3-0.3c-0.5,0-0.7,0.2-0.7,0.5s0.2,0.4,1,0.7
	c1.2,0.4,1.6,1,1.6,1.9c0,1.1-0.9,2-2.6,2c-0.7,0-1.4-0.1-2-0.4L66,68z"/>
<path class="st0" d="M77.1,67.6c0,0.8,0,1.4,0,1.9h-1.6l-0.1-0.9l0,0c-0.4,0.6-1.1,1-1.9,1c-1.2,0-2.1-0.8-2.1-2.7v-3.6h1.9v3.3
	c0,0.9,0.3,1.4,1,1.4c0.6,0,1-0.4,1-1c0,0,0,0,0-0.1v-3.6h1.9L77.1,67.6z"/>
<path class="st0" d="M78.7,65.5c0-0.9,0-1.5,0-2h1.6l0.1,1.1l0,0c0.2-0.7,0.9-1.2,1.6-1.3c0.1,0,0.3,0,0.4,0v1.8c-0.2,0-0.3,0-0.5,0
	c-0.6-0.1-1.2,0.4-1.3,1c0,0.1,0,0.3,0,0.4v3h-1.9L78.7,65.5z"/>
<path class="st0" d="M88.3,68.1c0,0.5,0,1,0.1,1.5h-1.7L86.6,69l0,0c-0.4,0.5-1.1,0.8-1.7,0.8c-1,0.1-1.9-0.7-2-1.7
	c0-0.1,0-0.1,0-0.2c0-1.6,1.4-2.3,3.6-2.3v-0.1c0-0.3-0.2-0.8-1.1-0.8c-0.6,0-1.2,0.2-1.7,0.4l-0.3-1.2c0.7-0.4,1.5-0.6,2.4-0.5
	c1.3-0.2,2.5,0.7,2.7,2c0,0.2,0,0.4,0,0.6V68.1z M86.5,66.7c-1,0-1.8,0.2-1.8,1c0,0.4,0.3,0.7,0.6,0.7c0,0,0.1,0,0.1,0
	c0.5,0,0.9-0.3,1-0.7c0-0.1,0-0.2,0-0.3L86.5,66.7z"/>
<path class="st0" d="M89.8,65.4c0-0.8,0-1.4,0-1.9h1.6l0.1,0.9l0,0c0.4-0.6,1.1-1,1.9-1c1.2,0,2.2,0.8,2.2,2.6v3.6h-1.8v-3.4
	c0-0.8-0.3-1.3-1-1.3c-0.5,0-0.9,0.3-1,0.7c0,0.2-0.1,0.3-0.1,0.5v3.5h-1.8V65.4z"/>
<path class="st0" d="M101.7,69.4c-0.5,0.2-1.1,0.3-1.7,0.3c-1.7,0.1-3.1-1.1-3.2-2.8c0-0.1,0-0.2,0-0.4c0-1.8,1.3-3.2,3.1-3.3
	c0.1,0,0.3,0,0.4,0c0.5,0,1,0.1,1.4,0.2l-0.3,1.4c-0.3-0.1-0.7-0.2-1.1-0.2c-0.9,0-1.6,0.6-1.6,1.5c0,0.1,0,0.1,0,0.2
	c-0.1,0.9,0.6,1.6,1.5,1.7c0.1,0,0.1,0,0.2,0c0.4,0,0.7-0.1,1.1-0.2L101.7,69.4z"/>
<path class="st0" d="M104,67.1c0.1,0.8,0.8,1.2,1.7,1.2c0.6,0,1.1-0.1,1.7-0.3l0.2,1.3c-0.7,0.3-1.4,0.4-2.2,0.4
	c-1.6,0.2-3-1-3.2-2.6c0-0.2,0-0.4,0-0.5c-0.1-1.7,1.2-3.1,2.9-3.2c0.1,0,0.1,0,0.2,0c2,0,2.7,1.5,2.7,3c0,0.3,0,0.5-0.1,0.8
	L104,67.1z M106.2,65.8c0.1-0.6-0.4-1.2-1-1.2c0,0-0.1,0-0.1,0c-0.7,0-1.2,0.6-1.2,1.2H106.2z"/>
<g>
	<polygon class="st1" points="145.3,36.3 145.3,56.2 148.9,56.2 148.9,47.8 156,47.8 156,44.8 148.9,44.8 148.9,39.3 158.3,39.3 
		158.3,36.3 	"/>
	<path class="st1" d="M163.1,45.7c0.6,0.1,1.2,0.2,1.8,0.1c2.8,0,4.4-1.3,4.4-3.7c0-2.2-1.6-3.4-4.1-3.4c-0.7,0-1.4,0-2.1,0.2
		L163.1,45.7z M159.5,36.3c1.9-0.3,3.7-0.4,5.6-0.4c2.7,0,4.7,0.6,6,1.6c1.3,1.1,2,2.8,2,4.5c0,1.9-0.6,3.5-1.7,4.6
		c-1.5,1.5-3.8,2.2-6.4,2.2c-0.6,0-1.2,0-1.8-0.1v7.6h-3.6L159.5,36.3z"/>
	<path class="st1" d="M181.1,47.7l-1.6-5c-0.4-1.2-0.7-2.6-1-3.8h-0.1c-0.3,1.2-0.6,2.6-1,3.8l-1.6,5H181.1z M175.4,50.5l-1.7,5.7
		h-3.8l6.5-20.2h4.7l6.5,20.2h-3.9l-1.8-5.7H175.4z"/>
	<path class="st1" d="M198.6,47.7l-1.6-5c-0.4-1.2-0.7-2.6-1-3.8h-0.1c-0.3,1.2-0.6,2.6-1,3.8l-1.6,5H198.6z M192.8,50.5l-1.7,5.7
		h-3.8l6.5-20.2h4.7l6.5,20.2h-3.9l-1.8-5.7H192.8z"/>
</g>
<g>
	<path class="st1" d="M202.6,66c0-0.1,0-0.3,0-0.4c-0.1-0.6-0.7-1.1-1.3-1.1c-1,0-1.5,0.8-1.5,2s0.5,1.9,1.5,1.9
		c0.6,0,1.2-0.4,1.3-1.1c0-0.1,0-0.3,0-0.4V66z M204.1,60.8v7c0,0.6,0,1.3,0,1.7h-1.3l-0.1-0.9h0c-0.4,0.7-1.1,1.1-1.9,1.1
		c-1.4,0-2.6-1.2-2.6-3.1c0-2,1.2-3.2,2.7-3.2c0.7-0.1,1.3,0.2,1.7,0.8h0v-3.4L204.1,60.8z"/>
	<path class="st1" d="M208.8,65.9c0-0.6-0.2-1.5-1.2-1.5c-0.9,0-1.3,0.8-1.4,1.5H208.8z M206.2,66.9c0,1.1,0.9,1.6,1.8,1.6
		c0.6,0,1.1-0.1,1.7-0.3l0.2,1c-0.7,0.3-1.4,0.4-2.1,0.4c-1.9,0-3.1-1.2-3.1-3c0-1.7,1-3.2,2.9-3.2c1.9,0,2.6,1.6,2.6,2.9
		c0,0.2,0,0.4-0.1,0.6H206.2z"/>
	<rect x="212.7" y="60.8" class="st1" width="1.5" height="8.7"/>
	<path class="st1" d="M219,65.9c0-0.6-0.2-1.5-1.2-1.5c-0.9,0-1.3,0.8-1.4,1.5H219z M216.3,66.9c0,1.1,0.9,1.6,1.8,1.6
		c0.6,0,1.1-0.1,1.7-0.3l0.2,1c-0.7,0.3-1.4,0.4-2.1,0.4c-1.9,0-3.1-1.2-3.1-3c0-1.7,1-3.2,2.9-3.2c1.9,0,2.6,1.6,2.6,2.9
		c0,0.2,0,0.4-0.1,0.6H216.3z"/>
	<path class="st1" d="M224.1,66.6c-1.1,0-2.1,0.2-2.1,1.1c0,0.4,0.3,0.8,0.7,0.8c0,0,0.1,0,0.1,0c0.5,0,1-0.3,1.2-0.8
		c0-0.1,0-0.2,0-0.3L224.1,66.6z M225.6,68.1c0,0.5,0,1,0.1,1.4h-1.4l-0.1-0.7h0c-0.4,0.5-1.1,0.8-1.8,0.8c-1,0.1-1.8-0.7-1.9-1.7
		c0,0,0-0.1,0-0.1c0-1.5,1.3-2.3,3.6-2.3v-0.1c0-0.4-0.2-1-1.2-1c-0.6,0-1.1,0.1-1.6,0.4l-0.3-1c0.7-0.4,1.4-0.6,2.2-0.5
		c1.9,0,2.5,1.2,2.5,2.5L225.6,68.1z"/>
	<path class="st1" d="M230.6,66c0-0.1,0-0.3,0-0.4c-0.1-0.6-0.7-1.1-1.3-1.1c-1,0-1.5,0.8-1.5,2s0.5,1.9,1.5,1.9
		c0.6,0,1.2-0.4,1.3-1.1c0-0.1,0-0.3,0-0.4V66z M232.1,60.8v7c0,0.6,0,1.3,0,1.7h-1.3l-0.1-0.9h0c-0.4,0.7-1.1,1.1-1.9,1.1
		c-1.4,0-2.6-1.2-2.6-3.1c0-2,1.2-3.2,2.7-3.2c0.7-0.1,1.3,0.2,1.7,0.8h0v-3.4L232.1,60.8z"/>
	<path class="st1" d="M236.8,65.9c0-0.6-0.2-1.5-1.2-1.5c-0.9,0-1.3,0.8-1.4,1.5H236.8z M234.1,66.9c0,1.1,0.9,1.6,1.8,1.6
		c0.6,0,1.1-0.1,1.7-0.3l0.2,1c-0.7,0.3-1.4,0.4-2.1,0.4c-1.9,0-3.1-1.2-3.1-3c0-1.7,1-3.2,2.9-3.2c1.9,0,2.6,1.6,2.6,2.9
		c0,0.2,0,0.4-0.1,0.6H234.1z"/>
	<path class="st1" d="M238.8,65.5c0-0.8,0-1.4,0-1.9h1.3l0.1,1.1h0c0.2-0.7,0.9-1.2,1.6-1.3c0.1,0,0.2,0,0.4,0v1.4
		c-0.1,0-0.3,0-0.5,0c-0.7,0-1.3,0.5-1.4,1.1c0,0.2,0,0.3,0,0.5v3.1h-1.5V65.5z"/>
	<path class="st1" d="M242.4,68.1c0.5,0.3,1,0.4,1.5,0.4c0.7,0,1-0.3,1-0.7c0-0.4-0.2-0.6-1-0.9c-1.2-0.4-1.7-1-1.7-1.7
		c0-1.1,0.9-1.9,2.3-1.9c0.6,0,1.1,0.1,1.6,0.4l-0.3,1.1c-0.4-0.2-0.8-0.3-1.3-0.3c-0.5,0-0.8,0.3-0.8,0.6c0,0.4,0.3,0.6,1,0.8
		c1.1,0.4,1.6,0.9,1.6,1.8c0,1.1-0.8,1.9-2.4,1.9c-0.6,0-1.3-0.1-1.8-0.4L242.4,68.1z"/>
	<path class="st1" d="M247,60.8h1.5v3.6h0c0.2-0.3,0.4-0.5,0.8-0.7c0.3-0.2,0.7-0.3,1-0.3c1,0,2.1,0.7,2.1,2.6v3.5h-1.5v-3.4
		c0-0.8-0.3-1.5-1.2-1.5c-0.5,0-1,0.3-1.2,0.8c0,0.1-0.1,0.3-0.1,0.5v3.6H247V60.8z"/>
	<path class="st1" d="M253.4,63.5h1.5v6h-1.5V63.5z M255,61.8c0,0.5-0.4,0.9-0.8,0.9c-0.5,0-0.9-0.4-0.9-0.8c0-0.5,0.4-0.9,0.8-0.9
		c0,0,0,0,0,0C254.6,61,254.9,61.3,255,61.8C255,61.8,255,61.8,255,61.8"/>
	<path class="st1" d="M257.4,67c0,0.1,0,0.3,0,0.4c0.2,0.6,0.7,1.1,1.3,1.1c1,0,1.5-0.8,1.5-2c0-1.1-0.5-1.9-1.5-1.9
		c-0.7,0-1.2,0.5-1.4,1.1c0,0.1,0,0.3,0,0.4V67z M255.9,65.5c0-0.8,0-1.4-0.1-2h1.3l0.1,0.9h0c0.4-0.7,1.2-1.1,2.1-1.1
		c1.4,0,2.5,1.2,2.5,3.1c0,2.2-1.4,3.2-2.7,3.2c-0.7,0-1.3-0.3-1.7-0.8h0V72h-1.5V65.5z"/>
	<path class="st1" d="M262.3,68.7c0-0.5,0.4-0.9,0.9-1c0,0,0,0,0.1,0c0.5,0,0.9,0.4,0.9,0.9c0,0,0,0.1,0,0.1c0,0.5-0.4,0.9-0.9,0.9
		C262.7,69.6,262.3,69.2,262.3,68.7C262.3,68.7,262.3,68.7,262.3,68.7"/>
	<path class="st0" d="M145.7,67.9c0.6,0.3,1.3,0.5,2,0.5c1,0,1.5-0.5,1.5-1.1s-0.4-1-1.5-1.4c-1.4-0.5-2.2-1.2-2.2-2.4
		c0-1.4,1.1-2.4,2.9-2.4c0.7,0,1.4,0.1,2,0.4l-0.4,1.2c-0.5-0.3-1.1-0.4-1.7-0.4c-1,0-1.3,0.5-1.3,1c0,0.6,0.5,0.9,1.6,1.4
		c1.4,0.6,2.1,1.3,2.1,2.5c0,1.3-1,2.5-3.1,2.5c-0.8,0-1.5-0.2-2.2-0.5L145.7,67.9z"/>
	<path class="st0" d="M152.3,63.5l1.1,3.2c0.1,0.4,0.3,0.8,0.3,1.2h0.1c0.1-0.3,0.2-0.8,0.3-1.2l0.9-3.2h1.6l-1.5,4.1
		c-0.8,2.2-1.4,3.2-2.1,3.9c-0.4,0.4-1,0.7-1.6,0.8l-0.3-1.3c0.3-0.1,0.6-0.2,0.8-0.4c0.4-0.2,0.6-0.6,0.8-0.9
		c0-0.1,0.1-0.2,0.1-0.3c0-0.1,0-0.2-0.1-0.3l-2.2-5.5L152.3,63.5z"/>
	<path class="st0" d="M156.9,65.3c0-0.7,0-1.3,0-1.8h1.3l0.1,0.9h0c0.4-0.7,1.1-1,1.9-1c1,0,2.1,0.7,2.1,2.6v3.6h-1.5v-3.4
		c0-0.8-0.3-1.5-1.1-1.5c-0.5,0-1,0.4-1.2,0.9c-0.1,0.2-0.1,0.3-0.1,0.5v3.5h-1.5V65.3z"/>
	<path class="st0" d="M165.9,68.6c0.8,0,1.5-0.8,1.5-2.1c0-0.9-0.4-2-1.5-2c-1,0-1.5,1.1-1.5,2C164.5,67.7,165,68.6,165.9,68.6
		L165.9,68.6z M165.9,69.7c-1.7,0-3-1.2-3-3.1s1.3-3.2,3.1-3.2c1.8,0,3,1.3,3,3.1C169,68.7,167.4,69.7,165.9,69.7L165.9,69.7z"/>
	<path class="st0" d="M169.6,65.3c0-0.7,0-1.3,0-1.8h1.3l0.1,0.9h0c0.4-0.7,1.1-1,1.9-1c1.1,0,2.1,0.7,2.1,2.6v3.6h-1.5v-3.4
		c0-0.8-0.3-1.5-1.1-1.5c-0.5,0-1,0.4-1.2,0.9c-0.1,0.2-0.1,0.3-0.1,0.5v3.5h-1.5V65.3z"/>
	<path class="st0" d="M176.9,63.5l1.1,3.2c0.1,0.4,0.3,0.8,0.3,1.2h0c0.1-0.3,0.2-0.8,0.3-1.2l1-3.2h1.6l-1.5,4.1
		c-0.8,2.2-1.4,3.2-2.1,3.9c-0.4,0.4-1,0.7-1.6,0.8l-0.3-1.3c0.3-0.1,0.6-0.2,0.9-0.4c0.4-0.2,0.6-0.6,0.8-0.9
		c0-0.1,0.1-0.2,0.1-0.3c0-0.1,0-0.2-0.1-0.3l-2.2-5.5L176.9,63.5z"/>
	<path class="st0" d="M181.5,65.3c0-0.7,0-1.3-0.1-1.8h1.3l0.1,0.9h0c0.4-0.7,1.1-1.1,1.8-1c0.7,0,1.4,0.4,1.7,1.1h0
		c0.2-0.3,0.4-0.6,0.7-0.7c0.4-0.2,0.8-0.4,1.2-0.4c1,0,2,0.7,2,2.6v3.5h-1.5v-3.3c0-1-0.4-1.6-1.1-1.6c-0.5,0-0.9,0.3-1.1,0.8
		c-0.1,0.2-0.1,0.3-0.1,0.5v3.6h-1.4v-3.5c0-0.8-0.3-1.4-1-1.4c-0.5,0-0.9,0.4-1.1,0.8c0,0.2-0.1,0.3-0.1,0.5v3.5h-1.5V65.3z"/>
	<path class="st0" d="M194.9,65.9c0-0.6-0.2-1.5-1.2-1.5c-0.9,0-1.3,0.8-1.4,1.5H194.9z M192.3,67c0,1.1,0.9,1.6,1.8,1.6
		c0.6,0,1.1-0.1,1.7-0.3l0.2,1c-0.7,0.3-1.4,0.4-2.1,0.4c-1.9,0-3.1-1.2-3.1-3c0-1.7,1-3.2,2.9-3.2s2.6,1.6,2.6,2.9
		c0,0.2,0,0.4-0.1,0.6L192.3,67z"/>
</g>
</svg>
