<svg xmlns="http://www.w3.org/2000/svg" viewBox="0 0 227.28 103"><defs><style>.cls-1{fill:#d5d3cc;}.cls-2{fill:#fff;}</style></defs><title>en_227x103_FCIP_Logo</title><g id="Layer_2" data-name="Layer 2"><g id="Layer_1-2" data-name="Layer 1"><polygon class="cls-1" points="0 77.19 3.64 77.19 3.64 94.09 11.84 94.09 11.84 97.14 0 97.14 0 77.19"/><path class="cls-1" d="M15.47,91c.09,2.61,2.11,3.73,4.44,3.73a11.53,11.53,0,0,0,4-.65l.53,2.49a13,13,0,0,1-5,.92c-4.68,0-7.43-2.87-7.43-7.28,0-4,2.43-7.76,7.05-7.76s6.21,3.85,6.21,7A8.72,8.72,0,0,1,25.12,91Zm6.34-2.54c0-1.33-.57-3.52-3-3.52-2.25,0-3.2,2-3.35,3.52Z"/><path class="cls-1" d="M37.81,93.68a19.18,19.18,0,0,0,.24,3.46H34.76l-.26-1.6h-.09a5.28,5.28,0,0,1-4.26,1.92,4.28,4.28,0,0,1-4.53-4.29c0-3.6,3.23-5.47,8.55-5.44v-.24c0-.95-.38-2.51-2.93-2.51A7.63,7.63,0,0,0,27.37,86l-.71-2.36a10.25,10.25,0,0,1,5.2-1.28c4.62,0,6,2.93,6,6.1ZM34.26,90.1c-2.57,0-5,.5-5,2.69a1.91,1.91,0,0,0,2.07,2.07,3,3,0,0,0,2.87-2,2.46,2.46,0,0,0,.09-.8Z"/><path class="cls-1" d="M53.41,76.13v17c0,1.49.05,3.08.11,4.06H50.29l-.17-2.28h-.06a5.16,5.16,0,0,1-4.67,2.6c-3.47,0-6.19-2.92-6.19-7.36,0-4.83,3-7.7,6.45-7.7a4.59,4.59,0,0,1,4.06,1.87h0V76.13ZM49.76,88.74a6.48,6.48,0,0,0-.08-1,3.2,3.2,0,0,0-3.14-2.55c-2.34,0-3.64,2.08-3.64,4.74s1.3,4.59,3.61,4.59A3.22,3.22,0,0,0,49.65,92a4.42,4.42,0,0,0,.11-1.06Z"/><path class="cls-1" d="M58.34,91c.09,2.61,2.1,3.73,4.44,3.73a11.53,11.53,0,0,0,4-.65l.53,2.49a13,13,0,0,1-5,.92c-4.68,0-7.43-2.87-7.43-7.28,0-4,2.43-7.76,7-7.76s6.22,3.85,6.22,7A8.72,8.72,0,0,1,68,91Zm6.34-2.54c0-1.33-.57-3.52-3-3.52-2.25,0-3.2,2-3.35,3.52Z"/><path class="cls-1" d="M69.5,87.37c0-2,0-3.37-.12-4.64h3.13l.15,2.72h.09a4.32,4.32,0,0,1,4-3,3.7,3.7,0,0,1,.85.09v3.4a6.76,6.76,0,0,0-1.09-.08,3.21,3.21,0,0,0-3.26,2.75,6.2,6.2,0,0,0-.08,1.09v7.49H69.5Z"/><path class="cls-1" d="M78.34,93.77A7.94,7.94,0,0,0,82,94.83c1.6,0,2.31-.68,2.31-1.63s-.59-1.44-2.37-2.1c-2.81-.95-4-2.48-4-4.2,0-2.54,2.1-4.5,5.44-4.5a8.37,8.37,0,0,1,3.85.86l-.74,2.55A6.32,6.32,0,0,0,83.49,85c-1.3,0-2,.65-2,1.54s.68,1.33,2.51,2c2.64.92,3.82,2.25,3.85,4.38,0,2.63-2,4.52-5.86,4.52a9.36,9.36,0,0,1-4.38-1Z"/><path class="cls-1" d="M89.29,76.13h3.64v8.55H93a4.8,4.8,0,0,1,1.8-1.63,5.19,5.19,0,0,1,2.52-.65c2.45,0,5,1.63,5,6.25v8.49H98.7V89c0-2.07-.77-3.67-2.78-3.67a3,3,0,0,0-2.84,2,3.26,3.26,0,0,0-.15,1.1v8.64H89.29Z"/><path class="cls-1" d="M108.55,78.7a2,2,0,0,1-2.07,2,2,2,0,1,1,2.07-2m-3.88,4h3.64V97.14h-3.64Z"/><path class="cls-1" d="M110.71,87.52c0-1.89-.06-3.43-.12-4.79h3.2L114,85h0A5.61,5.61,0,0,1,119,82.4c3.32,0,6.07,2.84,6.07,7.34,0,5.21-3.29,7.72-6.57,7.72a4.72,4.72,0,0,1-4-1.92h-.06V103h-3.64Zm3.64,3.58a5.5,5.5,0,0,0,.09,1,3.33,3.33,0,0,0,3.22,2.55c2.31,0,3.67-1.93,3.67-4.77,0-2.55-1.24-4.62-3.58-4.62a3.44,3.44,0,0,0-3.28,2.7,4.73,4.73,0,0,0-.12.91Z"/><path class="cls-2" d="M131.21,77.46a40.59,40.59,0,0,1,5.8-.41c3.73,0,6.27.77,8.11,2.31a8.88,8.88,0,0,1,3.14,7.33,10.31,10.31,0,0,1-3.11,7.94c-2,1.8-5.15,2.72-9,2.72a39.88,39.88,0,0,1-4.91-.27Zm3.64,16.93a13.32,13.32,0,0,0,2,.09c4.74,0,7.55-2.61,7.55-7.67,0-4.38-2.52-6.92-7.08-6.92a11.64,11.64,0,0,0-2.48.21Z"/><path class="cls-2" d="M152.31,91c.09,2.61,2.1,3.73,4.43,3.73a11.48,11.48,0,0,0,4-.65l.53,2.49a13,13,0,0,1-5,.92c-4.67,0-7.42-2.87-7.42-7.28,0-4,2.42-7.76,7-7.76s6.21,3.85,6.21,7A8.72,8.72,0,0,1,162,91Zm6.33-2.54c0-1.33-.56-3.52-3-3.52-2.25,0-3.2,2-3.34,3.52Z"/><path class="cls-2" d="M163.87,97.14V85.45h-2V82.73h2v-.68c0-3.88,2.7-6.24,7-6.24a8.59,8.59,0,0,1,4,.91L174,79.48a6.43,6.43,0,0,0-3.16-.77c-2.52,0-3.35,1.53-3.35,3.43v.59h8.58V97.14h-3.63V85.45h-4.92V97.14Z"/><path class="cls-2" d="M178.46,87c0-1.66-.06-3-.12-4.29h3.17l.18,2.16h.08a5.3,5.3,0,0,1,4.62-2.49c2.51,0,5.12,1.63,5.12,6.19v8.55h-3.64V89c0-2.07-.77-3.64-2.75-3.64a3.05,3.05,0,0,0-2.84,2.14,3.27,3.27,0,0,0-.18,1.15v8.49h-3.64Z"/><path class="cls-2" d="M196.42,91c.09,2.61,2.1,3.73,4.44,3.73a11.47,11.47,0,0,0,4-.65l.53,2.49a13,13,0,0,1-5,.92c-4.67,0-7.42-2.87-7.42-7.28,0-4,2.42-7.76,7-7.76s6.21,3.85,6.21,7a10.11,10.11,0,0,1-.11,1.54Zm6.33-2.54c0-1.33-.56-3.52-3-3.52-2.25,0-3.2,2-3.34,3.52Z"/><path class="cls-2" d="M220.86,76.13v17c0,1.49.06,3.08.12,4.06h-3.23l-.18-2.28h-.06a5.15,5.15,0,0,1-4.67,2.6c-3.46,0-6.19-2.92-6.19-7.36,0-4.83,3-7.7,6.46-7.7a4.56,4.56,0,0,1,4,1.87h.06V76.13Zm-3.64,12.61a5.41,5.41,0,0,0-.09-1A3.2,3.2,0,0,0,214,85.21c-2.34,0-3.64,2.08-3.64,4.74s1.3,4.59,3.61,4.59A3.22,3.22,0,0,0,217.1,92a4,4,0,0,0,.12-1.06Z"/><path class="cls-2" d="M222.78,95.13A2.22,2.22,0,0,1,225,92.79a2.34,2.34,0,1,1-2.25,2.34"/><polygon class="cls-2" points="103.38 17.23 134.71 17.23 134.71 24.4 112.11 24.4 112.11 37.61 129.07 37.61 129.07 44.78 112.11 44.78 112.11 65.08 103.38 65.08 103.38 17.23"/><path class="cls-2" d="M170.11,63.66c-2.06,1.06-6.61,2.2-12.35,2.2-15.19,0-24.42-9.58-24.42-24.14,0-15.76,10.93-25.27,25.55-25.27,5.75,0,9.87,1.21,11.64,2.14l-1.91,7a23.37,23.37,0,0,0-9.38-1.85c-9.71,0-16.75,6.11-16.75,17.61,0,10.51,6.18,17.25,16.69,17.25a24.55,24.55,0,0,0,9.51-1.77Z"/><rect class="cls-1" x="173.87" y="17.23" width="8.73" height="47.85"/><path class="cls-2" d="M188.92,17.87a76.5,76.5,0,0,1,13.35-1c6.38,0,11.07,1.35,14.12,3.9a13.54,13.54,0,0,1,4.69,10.58c0,4.54-1.42,8.3-4.13,10.86-3.47,3.48-8.93,5.11-15.11,5.11a24.93,24.93,0,0,1-4.26-.28v18h-8.66Zm8.66,22.29a17.24,17.24,0,0,0,4.26.36c6.53,0,10.5-3.2,10.5-8.8,0-5.33-3.69-8.17-9.72-8.17a23.57,23.57,0,0,0-5,.43Z"/><path class="cls-1" d="M184,5.76A5.76,5.76,0,1,1,178.21,0,5.75,5.75,0,0,1,184,5.76"/></g></g></svg>