<svg xmlns="http://www.w3.org/2000/svg" viewBox="0 0 103 75.92"><defs><style>.cls-1{fill:#deb408;}.cls-2{fill:#00457c;}</style></defs><title>en_IIC_103x75_Logo</title><g id="Layer_2" data-name="Layer 2"><g id="Layer_1-2" data-name="Layer 1"><polygon class="cls-1" points="11 0 0 8.25 11.11 17.19 22.12 8.25 11 0"/><polygon class="cls-2" points="0 19.46 0 20.43 3.2 20.43 3.99 55.49 0 55.49 0 56.13 4.75 56.13 5.93 19.46 0 19.46"/><polygon class="cls-2" points="6.58 19.46 9.17 19.46 7.99 56.13 7.23 56.13 6.58 19.46"/><polygon class="cls-2" points="9.82 19.46 12.3 19.46 11.22 56.13 10.47 56.13 9.82 19.46"/><polygon class="cls-2" points="13.05 19.46 15.64 19.46 14.46 56.13 13.81 56.13 13.05 19.46"/><polygon class="cls-2" points="16.29 19.46 22.12 19.46 22.12 20.43 18.73 20.43 17.91 55.49 22.12 55.49 22.12 56.13 16.94 56.13 16.29 19.46"/><path class="cls-2" d="M2.42,67.39v8.39H.53V67.39Z"/><path class="cls-2" d="M4,71.63c0-.75,0-1.39,0-1.94H5.59l.09.85h0a2.19,2.19,0,0,1,1.88-1c1.24,0,2.18.84,2.18,2.63v3.6H7.89V72.41c0-.79-.28-1.32-1-1.32a1,1,0,0,0-1,.71,1.33,1.33,0,0,0-.07.47v3.51H4Z"/><path class="cls-2" d="M11.28,74.14a3.77,3.77,0,0,0,1.64.45c.57,0,.8-.19.8-.5s-.18-.48-.88-.71c-1.27-.41-1.76-1.11-1.74-1.82,0-1.14,1-2,2.48-2a3.9,3.9,0,0,1,1.7.37L15,71.21a3.22,3.22,0,0,0-1.32-.33c-.46,0-.72.18-.72.48s.23.45,1,.71c1.16.39,1.63,1,1.64,1.87,0,1.14-.88,2-2.62,2a4.29,4.29,0,0,1-2-.44Z"/><path class="cls-2" d="M22.44,73.83c0,.79,0,1.44,0,2H20.85l-.09-.86h0a2.17,2.17,0,0,1-1.9,1c-1.25,0-2.14-.78-2.14-2.65V69.69h1.89V73c0,.88.29,1.42,1,1.42a1,1,0,0,0,.94-.66,1,1,0,0,0,.08-.41V69.69h1.89Z"/><path class="cls-2" d="M24,71.7c0-.9,0-1.48,0-2h1.62l.07,1.14h.06a1.77,1.77,0,0,1,1.64-1.28,2.35,2.35,0,0,1,.4,0v1.78a3.68,3.68,0,0,0-.53-.05,1.2,1.2,0,0,0-1.29,1,1.85,1.85,0,0,0,0,.43v3.07H24Z"/><path class="cls-2" d="M33.62,74.31a8.3,8.3,0,0,0,.1,1.47H32l-.12-.61h0a2.2,2.2,0,0,1-1.75.75,1.86,1.86,0,0,1-2-1.87c0-1.58,1.42-2.33,3.57-2.33v-.07c0-.33-.17-.79-1.11-.79a3.53,3.53,0,0,0-1.68.45l-.35-1.21A5.11,5.11,0,0,1,31,69.55a2.36,2.36,0,0,1,2.66,2.63ZM31.79,72.9c-1,0-1.77.24-1.77,1a.69.69,0,0,0,.75.73,1,1,0,0,0,1-.7,1.15,1.15,0,0,0,0-.33Z"/><path class="cls-2" d="M35.13,71.63c0-.75,0-1.39-.05-1.94h1.64l.09.85h0a2.19,2.19,0,0,1,1.88-1c1.24,0,2.18.84,2.18,2.63v3.6H39V72.41c0-.79-.27-1.32-1-1.32a1,1,0,0,0-1,.71,1.34,1.34,0,0,0-.06.47v3.51H35.13Z"/><path class="cls-2" d="M47,75.63a4.32,4.32,0,0,1-1.69.29,3,3,0,0,1-3.22-3.13,3.18,3.18,0,0,1,3.48-3.24,4.3,4.3,0,0,1,1.44.24l-.29,1.41A2.6,2.6,0,0,0,45.65,71,1.58,1.58,0,0,0,44,72.72a1.59,1.59,0,0,0,1.67,1.72,2.77,2.77,0,0,0,1.08-.2Z"/><path class="cls-2" d="M49.36,73.33c.06.79.83,1.17,1.72,1.17a5.11,5.11,0,0,0,1.68-.26L53,75.52a5.78,5.78,0,0,1-2.21.38,2.92,2.92,0,0,1-3.24-3.11,3.06,3.06,0,0,1,3.07-3.25c2,0,2.72,1.53,2.72,3a4.17,4.17,0,0,1-.07.76ZM51.59,72a1.1,1.1,0,0,0-1.06-1.23A1.25,1.25,0,0,0,49.35,72Z"/><path class="cls-2" d="M59,67.39v8.39H57.07V67.39Z"/><path class="cls-2" d="M60.54,71.63c0-.75,0-1.39,0-1.94h1.65l.08.85h0a2.19,2.19,0,0,1,1.88-1c1.24,0,2.18.84,2.18,2.63v3.6H64.43V72.41c0-.79-.28-1.32-1-1.32a1,1,0,0,0-1,.71,1.33,1.33,0,0,0-.07.47v3.51H60.54Z"/><path class="cls-2" d="M67.83,74.14a3.68,3.68,0,0,0,1.63.45c.57,0,.8-.19.8-.5s-.18-.48-.88-.71c-1.27-.41-1.75-1.11-1.74-1.82,0-1.14,1-2,2.48-2a3.9,3.9,0,0,1,1.7.37l-.32,1.29a3.22,3.22,0,0,0-1.32-.33c-.46,0-.72.18-.72.48s.23.45,1,.71c1.16.39,1.63,1,1.64,1.87,0,1.14-.88,2-2.62,2a4.29,4.29,0,0,1-2-.44Z"/><path class="cls-2" d="M75.36,68v1.65h1.36v1.4H75.36V73.3c0,.74.18,1.08.75,1.08a2.18,2.18,0,0,0,.56-.06v1.44a4.27,4.27,0,0,1-1.22.16A2.06,2.06,0,0,1,74,75.4a2.54,2.54,0,0,1-.53-1.81v-2.5h-.81v-1.4h.81V68.55Z"/><path class="cls-2" d="M78.74,68.9a1,1,0,1,1,1.09-1,1,1,0,0,1-1.09,1Zm-.93,6.88V69.69H79.7v6.09Z"/><path class="cls-2" d="M83.34,68v1.65H84.7v1.4H83.34V73.3c0,.74.18,1.08.74,1.08a2.21,2.21,0,0,0,.57-.06v1.44a4.27,4.27,0,0,1-1.22.16A2.11,2.11,0,0,1,82,75.4a2.59,2.59,0,0,1-.52-1.81v-2.5h-.81v-1.4h.81V68.55Z"/><path class="cls-2" d="M91.53,73.83c0,.79,0,1.44,0,2H89.94l-.09-.86h0a2.18,2.18,0,0,1-1.9,1c-1.25,0-2.15-.78-2.15-2.65V69.69h1.9V73c0,.88.28,1.42,1,1.42a1,1,0,0,0,.94-.66,1,1,0,0,0,.08-.41V69.69h1.89Z"/><path class="cls-2" d="M95.16,68v1.65h1.36v1.4H95.16V73.3c0,.74.19,1.08.75,1.08a2.07,2.07,0,0,0,.56-.06l0,1.44a4.27,4.27,0,0,1-1.22.16,2.11,2.11,0,0,1-1.44-.52,2.54,2.54,0,0,1-.52-1.81v-2.5H92.5v-1.4h.81V68.55Z"/><path class="cls-2" d="M99,73.33c.07.79.84,1.17,1.72,1.17a5.11,5.11,0,0,0,1.68-.26l.25,1.28a5.76,5.76,0,0,1-2.2.38,2.92,2.92,0,0,1-3.25-3.11,3.06,3.06,0,0,1,3.07-3.25c2,0,2.72,1.53,2.72,3a5.66,5.66,0,0,1-.06.76Zm2.23-1.3a1.1,1.1,0,0,0-1.06-1.23A1.25,1.25,0,0,0,99,72Z"/></g></g></svg>