<svg xmlns="http://www.w3.org/2000/svg" viewBox="0 0 280.39 85.77"><defs><style>.cls-1{fill:#fff;}.cls-2{fill:#d5d3cc;}</style></defs><title>fr_280x85_FCIP_Logo</title><g id="Layer_2" data-name="Layer 2"><g id="Layer_1-2" data-name="Layer 1"><path class="cls-1" d="M135.27,71.11a6.09,6.09,0,0,0-.08-1,3.15,3.15,0,0,0-3.08-2.5c-2.3,0-3.57,2-3.57,4.64s1.27,4.5,3.54,4.5a3.16,3.16,0,0,0,3.08-2.52,4.31,4.31,0,0,0,.11-1Zm3.57-12.35V75.38c0,1.45.06,3,.11,4h-3.16l-.17-2.24h-.06A5.06,5.06,0,0,1,131,79.68c-3.4,0-6.07-2.88-6.07-7.23,0-4.73,2.93-7.55,6.33-7.55a4.48,4.48,0,0,1,4,1.84h.06v-8Z"/><path class="cls-1" d="M149.89,70.79c0-1.3-.55-3.45-2.93-3.45-2.2,0-3.13,2-3.28,3.45Zm-6.21,2.5c.09,2.56,2.06,3.66,4.35,3.66a11.29,11.29,0,0,0,3.92-.64l.52,2.43a12.53,12.53,0,0,1-4.93.91c-4.58,0-7.28-2.82-7.28-7.14,0-3.92,2.38-7.61,6.91-7.61s6.09,3.78,6.09,6.88a8.5,8.5,0,0,1-.12,1.51Z"/><rect class="cls-1" x="159.11" y="58.76" width="3.56" height="20.6"/><path class="cls-1" d="M173.79,70.79c0-1.3-.55-3.45-2.93-3.45-2.2,0-3.13,2-3.28,3.45Zm-6.21,2.5c.09,2.56,2.06,3.66,4.35,3.66a11.29,11.29,0,0,0,3.92-.64l.53,2.43a12.58,12.58,0,0,1-4.94.91c-4.58,0-7.28-2.82-7.28-7.14,0-3.92,2.38-7.61,6.91-7.61s6.09,3.78,6.09,6.88a8.5,8.5,0,0,1-.12,1.51Z"/><path class="cls-1" d="M186,72.45c-2.53,0-4.93.49-4.93,2.64a1.87,1.87,0,0,0,2,2,2.93,2.93,0,0,0,2.81-1.94,2.37,2.37,0,0,0,.09-.78ZM189.49,76a19.58,19.58,0,0,0,.23,3.4H186.5l-.26-1.58h-.09a5.15,5.15,0,0,1-4.18,1.9,4.2,4.2,0,0,1-4.44-4.21c0-3.54,3.16-5.37,8.39-5.35V69.9c0-.93-.38-2.47-2.87-2.47a7.53,7.53,0,0,0-3.81,1l-.69-2.32a10.05,10.05,0,0,1,5.11-1.26c4.52,0,5.83,2.88,5.83,6Z"/><path class="cls-1" d="M201.21,71.11a5.09,5.09,0,0,0-.09-1,3.14,3.14,0,0,0-3.08-2.5c-2.29,0-3.56,2-3.56,4.64s1.27,4.5,3.54,4.5a3.17,3.17,0,0,0,3.08-2.52,4.31,4.31,0,0,0,.11-1Zm3.57-12.35V75.38c0,1.45.06,3,.11,4h-3.16l-.18-2.24h-.05a5.09,5.09,0,0,1-4.58,2.56c-3.4,0-6.07-2.88-6.07-7.23,0-4.73,2.93-7.55,6.33-7.55a4.48,4.48,0,0,1,4,1.84h.06v-8Z"/><path class="cls-1" d="M215.83,70.79c0-1.3-.56-3.45-2.94-3.45-2.2,0-3.13,2-3.27,3.45Zm-6.21,2.5c.09,2.56,2.06,3.66,4.35,3.66a11.23,11.23,0,0,0,3.91-.64l.53,2.43a12.54,12.54,0,0,1-4.94.91c-4.58,0-7.27-2.82-7.27-7.14,0-3.92,2.37-7.61,6.9-7.61s6.09,3.78,6.09,6.88a7.64,7.64,0,0,1-.12,1.51Z"/><path class="cls-1" d="M220.55,69.78c0-1.91,0-3.31-.11-4.55h3.07l.15,2.67h.08a4.23,4.23,0,0,1,3.89-3,4.33,4.33,0,0,1,.84.09v3.34a5.55,5.55,0,0,0-1.07-.09,3.13,3.13,0,0,0-3.19,2.7,6,6,0,0,0-.09,1.08v7.34h-3.57Z"/><path class="cls-1" d="M229.22,76a7.71,7.71,0,0,0,3.6,1c1.57,0,2.27-.66,2.27-1.59s-.59-1.43-2.32-2.06c-2.76-.93-3.9-2.44-3.9-4.12,0-2.5,2.07-4.42,5.34-4.42a8.17,8.17,0,0,1,3.77.85l-.72,2.49a6.34,6.34,0,0,0-3-.81c-1.27,0-2,.64-2,1.51s.67,1.3,2.47,2c2.58.9,3.74,2.21,3.77,4.3,0,2.58-2,4.44-5.75,4.44a9.12,9.12,0,0,1-4.29-1Z"/><path class="cls-1" d="M240,58.76h3.56v8.38h.06a4.63,4.63,0,0,1,1.78-1.59,5,5,0,0,1,2.46-.64c2.41,0,4.93,1.59,4.93,6.12v8.33h-3.57v-8c0-2-.75-3.6-2.72-3.6a3,3,0,0,0-2.79,2,3.12,3.12,0,0,0-.15,1.07v8.48H240Z"/><path class="cls-1" d="M255,65.23h3.57V79.36H255Zm3.8-4a2,2,0,1,1-2-1.94,1.91,1.91,0,0,1,2,1.94"/><path class="cls-1" d="M264.53,73.44a5.36,5.36,0,0,0,.09,1,3.26,3.26,0,0,0,3.16,2.49c2.26,0,3.59-1.89,3.59-4.67,0-2.5-1.21-4.53-3.51-4.53a3.4,3.4,0,0,0-3.22,2.64,5.53,5.53,0,0,0-.11.9ZM261,69.93c0-1.86-.06-3.37-.12-4.7H264l.17,2.17h.06a5.5,5.5,0,0,1,4.84-2.5c3.25,0,5.95,2.79,5.95,7.2,0,5.11-3.22,7.58-6.44,7.58a4.61,4.61,0,0,1-4-1.9h-.06V85.1H261Z"/><path class="cls-1" d="M276,77.38a2.16,2.16,0,0,1,2.2-2.29,2.13,2.13,0,0,1,2.2,2.29,2.2,2.2,0,1,1-4.4,0"/><polygon class="cls-1" points="133.98 1.02 133.98 47.94 142.53 47.94 142.53 28.03 159.17 28.03 159.17 21 142.53 21 142.53 8.05 164.7 8.05 164.7 1.02 133.98 1.02"/><path class="cls-1" d="M175.94,23.16a17.73,17.73,0,0,0,4.24.35c6.5,0,10.45-3.18,10.45-8.75,0-5.3-3.67-8.12-9.67-8.12a24.3,24.3,0,0,0-5,.42ZM167.33,1A74.74,74.74,0,0,1,180.6,0c6.36,0,11,1.34,14.05,3.88a13.45,13.45,0,0,1,4.66,10.52c0,4.52-1.41,8.26-4.09,10.8-3.46,3.46-8.9,5.09-15,5.09a25.82,25.82,0,0,1-4.24-.28V47.94h-8.61Z"/><path class="cls-1" d="M218.51,27.89l-3.74-11.73c-.92-2.89-1.69-6.13-2.4-8.89h-.14c-.7,2.76-1.41,6.07-2.26,8.89L206.3,27.89Zm-13.62,6.56-4.1,13.49h-9L207.07.35h11.09l15.45,47.59H224.3L220,34.45Z"/><path class="cls-1" d="M259.74,27.89,256,16.16c-.92-2.89-1.7-6.13-2.41-8.89h-.13c-.71,2.76-1.42,6.07-2.26,8.89l-3.68,11.73Zm-13.63,6.56L242,47.94h-9L248.3.35h11.09l15.46,47.59h-9.32l-4.31-13.49Z"/><path class="cls-2" d="M.81,75.5a9.86,9.86,0,0,0,4.73,1.25c2.26,0,3.54-1.09,3.54-2.68s-1-2.34-3.45-3.24C2.38,69.69.32,68,.32,65.16c0-3.22,2.67-5.63,6.93-5.63a10.65,10.65,0,0,1,4.67,1l-.84,2.9a8.59,8.59,0,0,0-3.91-.93C4.9,62.46,4,63.65,4,64.81,4,66.32,5.08,67,7.69,68c3.39,1.31,5,3,5,5.81,0,3.16-2.38,5.86-7.4,5.86A11.48,11.48,0,0,1,0,78.45Z"/><path class="cls-2" d="M16.54,65.25l2.53,7.57c.28.88.6,2,.81,2.73H20c.21-.78.47-1.85.76-2.76l2.2-7.54h3.8l-3.54,9.63c-1.94,5.28-3.24,7.64-4.9,9.09a7.63,7.63,0,0,1-3.74,1.8l-.81-3a6.15,6.15,0,0,0,2-1,6.24,6.24,0,0,0,2-2.23,1.9,1.9,0,0,0,.2-.64,1.78,1.78,0,0,0-.17-.69l-5.2-13Z"/><path class="cls-2" d="M27.27,69.46c0-1.62-.05-3-.11-4.21h3.1l.18,2.11h.09a5.17,5.17,0,0,1,4.52-2.43c2.47,0,5,1.6,5,6.07v8.38H36.5v-8c0-2-.75-3.56-2.69-3.56A3,3,0,0,0,31,69.91a3.31,3.31,0,0,0-.18,1.15v8.32H27.27Z"/><path class="cls-2" d="M48.66,77.12c2,0,3.46-2,3.46-4.84,0-2.21-1-4.77-3.43-4.77S45.15,70,45.15,72.33c0,2.72,1.36,4.79,3.48,4.79Zm-.11,2.59c-4,0-7.09-2.73-7.09-7.29s3-7.49,7.32-7.49,7,3,7,7.25c0,5.21-3.66,7.53-7.22,7.53Z"/><path class="cls-2" d="M57.22,69.46c0-1.62-.06-3-.11-4.21h3.1l.17,2.11h.09A5.19,5.19,0,0,1,65,64.93c2.48,0,5,1.6,5,6.07v8.38H66.45v-8c0-2-.76-3.56-2.7-3.56A3,3,0,0,0,61,69.91a3.57,3.57,0,0,0-.17,1.15v8.32H57.22Z"/><path class="cls-2" d="M74.57,65.25l2.53,7.57c.28.88.6,2,.81,2.73H78c.19-.78.46-1.85.75-2.76L81,65.25h3.8l-3.55,9.63C79.27,80.16,78,82.52,76.31,84a7.63,7.63,0,0,1-3.74,1.8l-.82-3a6.23,6.23,0,0,0,2.07-1,6.32,6.32,0,0,0,2-2.23,1.69,1.69,0,0,0,.2-.64,1.78,1.78,0,0,0-.17-.69l-5.19-13Z"/><path class="cls-2" d="M85.31,69.46c0-1.62-.06-3-.12-4.21h3l.17,2.09h.09a4.8,4.8,0,0,1,4.35-2.41,4.08,4.08,0,0,1,3.92,2.61h.06a5.35,5.35,0,0,1,1.71-1.76,4.83,4.83,0,0,1,2.9-.85c2.32,0,4.7,1.6,4.7,6.13v8.32h-3.47v-7.8c0-2.36-.83-3.74-2.53-3.74a2.71,2.71,0,0,0-2.5,1.88,4,4,0,0,0-.18,1.19v8.47H94V71.2c0-2-.78-3.36-2.45-3.36a2.87,2.87,0,0,0-2.58,2,4.35,4.35,0,0,0-.17,1.2v8.35H85.31Z"/><path class="cls-2" d="M117.13,70.83c0-1.31-.54-3.46-2.93-3.46-2.2,0-3.12,2-3.27,3.46Zm-6.2,2.49C111,75.87,113,77,115.28,77a11,11,0,0,0,3.92-.65l.53,2.44a12.8,12.8,0,0,1-4.94.91c-4.59,0-7.28-2.82-7.28-7.14,0-3.92,2.37-7.61,6.91-7.61s6.09,3.77,6.09,6.88a8.41,8.41,0,0,1-.12,1.51Z"/></g></g></svg>