<svg xmlns="http://www.w3.org/2000/svg" viewBox="0 0 108 69.74"><defs><style>.cls-1{fill:#deb408;}.cls-2{fill:#00457c;}</style></defs><title>fr_IIC_108x69_Logo</title><g id="Layer_2" data-name="Layer 2"><g id="Layer_1-2" data-name="Layer 1"><polygon class="cls-1" points="10.09 0 0 7.56 10.19 15.76 20.27 7.56 10.09 0"/><polygon class="cls-2" points="0 17.84 0 18.72 2.93 18.72 3.66 50.87 0 50.87 0 51.45 4.35 51.45 5.44 17.84 0 17.84"/><polygon class="cls-2" points="6.03 17.84 8.41 17.84 7.32 51.45 6.63 51.45 6.03 17.84"/><polygon class="cls-2" points="9 17.84 11.27 17.84 10.28 51.45 9.6 51.45 9 17.84"/><polygon class="cls-2" points="11.97 17.84 14.34 17.84 13.25 51.45 12.66 51.45 11.97 17.84"/><polygon class="cls-2" points="14.93 17.84 20.27 17.84 20.27 18.72 17.17 18.72 16.42 50.87 20.27 50.87 20.27 51.45 15.53 51.45 14.93 17.84"/><path class="cls-2" d="M2.25,61.22V69.6H.36V61.22Z"/><path class="cls-2" d="M3.83,65.46c0-.76,0-1.39-.05-1.94H5.42l.09.85h0a2.19,2.19,0,0,1,1.88-1c1.24,0,2.18.84,2.18,2.63V69.6H7.71V66.23c0-.78-.28-1.32-1-1.32a1,1,0,0,0-1,.71,1.34,1.34,0,0,0-.06.47V69.6H3.83Z"/><path class="cls-2" d="M11.1,68a3.72,3.72,0,0,0,1.63.45c.57,0,.81-.19.81-.5s-.19-.47-.88-.71c-1.27-.41-1.76-1.11-1.74-1.81,0-1.15,1-2,2.47-2a4.06,4.06,0,0,1,1.7.36L14.77,65a3.17,3.17,0,0,0-1.32-.34c-.46,0-.72.19-.72.49s.24.44,1,.7c1.16.39,1.63,1,1.64,1.87,0,1.14-.88,2-2.62,2a4.24,4.24,0,0,1-2-.44Z"/><path class="cls-2" d="M18.62,61.87v1.65H20v1.39H18.62v2.22c0,.73.19,1.06.75,1.06a2.86,2.86,0,0,0,.56,0v1.42a3.88,3.88,0,0,1-1.22.17,2,2,0,0,1-1.43-.53,2.5,2.5,0,0,1-.52-1.8v-2.5H16V63.52h.81V62.38Z"/><path class="cls-2" d="M22,62.72a1,1,0,0,1-1-1,1.07,1.07,0,1,1,1.06,1Zm-.93,6.88V63.52H23V69.6Z"/><path class="cls-2" d="M26.59,61.87v1.65H28v1.39H26.59v2.22c0,.73.19,1.06.75,1.06a2.92,2.92,0,0,0,.56,0v1.42a3.88,3.88,0,0,1-1.22.17,2,2,0,0,1-1.43-.53,2.5,2.5,0,0,1-.52-1.8v-2.5h-.81V63.52h.81V62.38Z"/><path class="cls-2" d="M34.77,67.65c0,.79,0,1.44,0,1.95H33.18l-.09-.86h0a2.19,2.19,0,0,1-1.91,1C29.91,69.74,29,69,29,67.09V63.52h1.89v3.27c0,.88.28,1.42.95,1.42a1,1,0,0,0,1-1.07V63.52h1.89Z"/><path class="cls-2" d="M38.4,61.87v1.65h1.36v1.39H38.4v2.22c0,.73.19,1.06.75,1.06a2.86,2.86,0,0,0,.56,0v1.42a3.88,3.88,0,0,1-1.22.17,2,2,0,0,1-1.43-.53,2.5,2.5,0,0,1-.52-1.8v-2.5h-.81V63.52h.81V62.38Z"/><path class="cls-2" d="M49.26,60.77v7c0,.7,0,1.41.05,1.82H47.63l-.08-.88h0a2.14,2.14,0,0,1-1.91,1c-1.44,0-2.59-1.23-2.59-3.12,0-2,1.26-3.24,2.72-3.24a1.86,1.86,0,0,1,1.6.69h0v-3.3Zm-1.89,5.34a1.38,1.38,0,0,0,0-.35,1.12,1.12,0,0,0-1.1-.92c-.87,0-1.31.77-1.31,1.73s.51,1.66,1.29,1.66a1.12,1.12,0,0,0,1.11-.91,2.61,2.61,0,0,0,0-.42Z"/><path class="cls-2" d="M53,61a16.37,16.37,0,0,1-1.49,3.35l-1.14.12a21.29,21.29,0,0,0,.87-3.36Z"/><path class="cls-2" d="M59.11,68.13a8.37,8.37,0,0,0,.1,1.47h-1.7L57.4,69h0a2.18,2.18,0,0,1-1.74.75,1.86,1.86,0,0,1-2-1.87c0-1.58,1.41-2.32,3.56-2.32v-.08c0-.32-.17-.78-1.1-.78a3.53,3.53,0,0,0-1.68.45l-.35-1.21a4.94,4.94,0,0,1,2.36-.55A2.36,2.36,0,0,1,59.11,66Zm-1.83-1.4c-1,0-1.76.23-1.76,1a.68.68,0,0,0,.75.72,1,1,0,0,0,1-.7,1.66,1.66,0,0,0,0-.32Z"/><path class="cls-2" d="M60.61,68a3.68,3.68,0,0,0,1.63.45c.57,0,.8-.19.8-.5s-.18-.47-.88-.71c-1.27-.41-1.75-1.11-1.74-1.81,0-1.15,1-2,2.47-2a4.15,4.15,0,0,1,1.71.36L64.27,65A3.12,3.12,0,0,0,63,64.7c-.46,0-.72.19-.72.49s.23.44,1,.7c1.15.39,1.62,1,1.64,1.87,0,1.14-.89,2-2.62,2a4.29,4.29,0,0,1-2-.44Z"/><path class="cls-2" d="M66,68a3.72,3.72,0,0,0,1.63.45c.57,0,.81-.19.81-.5s-.19-.47-.88-.71c-1.27-.41-1.76-1.11-1.74-1.81,0-1.15,1-2,2.47-2a4.06,4.06,0,0,1,1.7.36L69.67,65a3.17,3.17,0,0,0-1.32-.34c-.46,0-.72.19-.72.49s.24.44,1,.7c1.16.39,1.63,1,1.64,1.87,0,1.14-.88,2-2.62,2a4.27,4.27,0,0,1-2-.44Z"/><path class="cls-2" d="M77.14,67.65c0,.79,0,1.44,0,1.95H75.55l-.09-.86h0a2.19,2.19,0,0,1-1.91,1c-1.24,0-2.13-.77-2.13-2.65V63.52h1.89v3.27c0,.88.28,1.42,1,1.42a1,1,0,0,0,1-1.07V63.52h1.89Z"/><path class="cls-2" d="M78.67,65.52c0-.89,0-1.48,0-2h1.62l.07,1.13h0A1.78,1.78,0,0,1,82,63.38a2.25,2.25,0,0,1,.4,0V65.2a2.62,2.62,0,0,0-.52,0,1.19,1.19,0,0,0-1.29,1,1.76,1.76,0,0,0,0,.42V69.6H78.66Z"/><path class="cls-2" d="M88.31,68.13a8.52,8.52,0,0,0,.09,1.47H86.7L86.59,69h0a2.17,2.17,0,0,1-1.74.75,1.86,1.86,0,0,1-2-1.87c0-1.58,1.42-2.32,3.57-2.32v-.08c0-.32-.18-.78-1.11-.78a3.53,3.53,0,0,0-1.68.45l-.35-1.21a5,5,0,0,1,2.36-.55A2.37,2.37,0,0,1,88.31,66Zm-1.83-1.4c-1,0-1.77.23-1.77,1a.68.68,0,0,0,.75.72,1,1,0,0,0,1-.7,1.12,1.12,0,0,0,0-.32Z"/><path class="cls-2" d="M89.81,65.46c0-.76,0-1.39,0-1.94H91.4l.09.85h0a2.15,2.15,0,0,1,1.87-1c1.25,0,2.18.84,2.18,2.63V69.6H93.69V66.23c0-.78-.27-1.32-1-1.32a1,1,0,0,0-1,.71,1.34,1.34,0,0,0-.06.47V69.6H89.81Z"/><path class="cls-2" d="M101.66,69.45a4.36,4.36,0,0,1-1.69.29,3,3,0,0,1-3.22-3.12,3.18,3.18,0,0,1,3.48-3.24,4.35,4.35,0,0,1,1.44.24l-.3,1.4a2.71,2.71,0,0,0-1.05-.18,1.57,1.57,0,0,0-1.63,1.7,1.59,1.59,0,0,0,1.66,1.72,2.79,2.79,0,0,0,1.09-.2Z"/><path class="cls-2" d="M104,67.15c.06.8.83,1.17,1.71,1.17a5.17,5.17,0,0,0,1.69-.26l.24,1.28a5.76,5.76,0,0,1-2.2.38,2.91,2.91,0,0,1-3.24-3.1,3.06,3.06,0,0,1,3.07-3.25c2,0,2.71,1.53,2.71,3a5.51,5.51,0,0,1-.06.76Zm2.23-1.29a1.1,1.1,0,0,0-1.06-1.23A1.25,1.25,0,0,0,104,65.86Z"/></g></g></svg>